<svg xmlns="http://www.w3.org/2000/svg" viewBox="0 0 512 512">
  <defs>
    <linearGradient id="bg" x1="0" y1="0" x2="1" y2="1">
      <stop offset="0" stop-color="#76B9FF"/>
      <stop offset="0.55" stop-color="#62D3A4"/>
      <stop offset="1" stop-color="#FFB38A"/>
    </linearGradient>
    <filter id="soft" x="-20%" y="-20%" width="140%" height="140%">
      <feGaussianBlur stdDeviation="10" result="b"/>
      <feColorMatrix in="b" type="matrix"
        values="1 0 0 0 0
                0 1 0 0 0
                0 0 1 0 0
                0 0 0 0.25 0" result="s"/>
      <feMerge>
        <feMergeNode in="s"/>
        <feMergeNode in="SourceGraphic"/>
      </feMerge>
    </filter>
  </defs>
  <rect width="512" height="512" rx="120" fill="url(#bg)"/>
  <g filter="url(#soft)">
    <path d="M162 244c0-52 42-94 94-94s94 42 94 94c0 57-43 115-94 115s-94-58-94-115Z" fill="rgba(255,255,255,0.9)"/>
    <path d="M182 244c0-41 33-74 74-74s74 33 74 74c0 45-34 95-74 95s-74-50-74-95Z" fill="#FFF8F1"/>
    <path d="M205 256c14 14 32 21 51 21s37-7 51-21" fill="none" stroke="#2A2228" stroke-width="18" stroke-linecap="round"/>
    <circle cx="232" cy="228" r="12" fill="#2A2228"/>
    <circle cx="280" cy="228" r="12" fill="#2A2228"/>
    <path d="M256 136c-45 0-82 37-82 82 0 18 6 35 15 49 8-63 50-111 105-111 27 0 52 12 70 31-14-30-45-51-78-51Z" fill="rgba(255,255,255,0.45)"/>
    <path d="M256 348c-48 0-88 24-109 59 30 24 68 38 109 38s79-14 109-38c-21-35-61-59-109-59Z" fill="rgba(255,255,255,0.85)"/>
    <path d="M256 372c-32 0-58 14-74 34 22 14 47 22 74 22s52-8 74-22c-16-20-42-34-74-34Z" fill="#FFF1E3"/>
    <path d="M319 216c24 10 41 33 41 60 0 29-20 54-47 62" fill="none" stroke="rgba(42,34,40,0.28)" stroke-width="14" stroke-linecap="round"/>
    <path d="M193 216c-24 10-41 33-41 60 0 29 20 54 47 62" fill="none" stroke="rgba(42,34,40,0.28)" stroke-width="14" stroke-linecap="round"/>
  </g>
</svg>

